Coordinates
version=1
nRows=13
nColumns=40
inDegrees=yes

Units are S.I. units (second, meters, Newtons, ...)
Angles are in degrees.

endheader
time	pelvis_tilt	pelvis_list	pelvis_rotation	pelvis_tx	pelvis_ty	pelvis_tz	hip_flexion_r	hip_adduction_r	hip_rotation_r	knee_angle_r	knee_angle_r_beta	ankle_angle_r	subtalar_angle_r	mtp_angle_r	hip_flexion_l	hip_adduction_l	hip_rotation_l	knee_angle_l	knee_angle_l_beta	ankle_angle_l	subtalar_angle_l	mtp_angle_l	lumbar_extension	lumbar_bending	lumbar_rotation	arm_flex_r	arm_add_r	arm_rot_r	elbow_flex_r	pro_sup_r	wrist_flex_r	wrist_dev_r	arm_flex_l	arm_add_l	arm_rot_l	elbow_flex_l	pro_sup_l	wrist_flex_l	wrist_dev_l
     35.09228571	     -7.42526409	     -5.80709409	     -4.06099170	      1.11572834	      0.92594192	      0.44166986	     31.91210644	     -1.01225678	    -12.38109211	     16.21323824	     16.21323824	      3.15564060	      6.24527580	      9.44430943	      4.31010103	     -5.53892034	     -8.27064709	     16.06378318	     16.06378318	     18.14529630	     -9.75628990	     -0.74258569	    -12.92362134	      7.02617997	      0.81512073	    -11.26200470	    -15.07847263	     -9.98537060	     30.95043249	     47.01158682	      0.00000000	      0.00000000	      9.57308543	    -16.75492900	     -1.39726222	     86.60097614	     47.20903909	      0.00000000	      0.00000000
     35.10457143	     -7.30957070	     -5.66201150	     -3.86202197	      1.11695862	      0.92425196	      0.44335580	     31.16549764	     -0.96006374	    -13.03057259	     15.47445204	     15.47445204	      3.19054635	      6.58698394	      9.54882583	      3.43631135	     -5.47556255	     -8.38706028	     15.78502689	     15.78502689	     18.58310151	     -9.22924763	     -1.08642215	    -12.59209610	      6.81928407	      0.86293094	    -11.60369448	    -14.73297652	     -9.98224978	     30.85510428	     46.99987186	      0.00000000	      0.00000000	     10.48523843	    -16.43971684	     -1.31378109	     87.54840306	     47.23995490	      0.00000000	      0.00000000
     35.11685714	     -7.19800488	     -5.52344281	     -3.66232272	      1.11837621	      0.92247698	      0.44526148	     30.52480785	     -0.92973936	    -13.56216060	     15.32114962	     15.32114962	      3.20974340	      6.62168068	      9.26017164	      2.55690443	     -5.47940781	     -8.71670583	     15.52574805	     15.52574805	     19.03417622	     -8.34311572	     -1.60625289	    -12.23500656	      6.60924765	      1.00173142	    -11.95148433	    -14.37951279	     -9.98335059	     30.86544346	     46.98076597	      0.00000000	      0.00000000	     11.28570158	    -16.14640288	     -1.08127209	     88.68875228	     47.26827616	      0.00000000	      0.00000000
     35.12914286	     -7.27732198	     -5.42221180	     -3.48996882	      1.11979696	      0.92044879	      0.44735346	     30.09504382	     -0.83582972	    -13.89355022	     15.45638445	     15.45638445	      3.28089512	      6.35835756	      9.17343614	      1.99864245	     -5.50371830	     -8.66084763	     15.48305559	     15.48305559	     19.49938994	     -8.24475168	     -1.81580058	    -11.59236412	      6.46168562	      0.78892308	    -11.96475142	    -14.12329542	     -9.94847047	     30.89419763	     46.97489346	      0.00000000	      0.00000000	     11.80598662	    -16.01973991	     -1.05842533	     89.02514512	     47.27781735	      0.00000000	      0.00000000
     35.14142857	     -6.99375280	     -5.32006636	     -3.24455002	      1.12163889	      0.91877288	      0.44964076	     29.26297326	     -0.72248775	    -13.83556251	     15.71749828	     15.71749828	      2.05444091	      5.35293000	      4.83417247	      0.96305140	     -5.71216780	     -9.64381064	     15.38206315	     15.38206315	     20.15387694	     -6.13638699	     -2.61471436	    -11.50654698	      6.29257117	      1.31443612	    -12.54460882	    -13.74580797	     -9.78422102	     31.61433429	     46.83195850	      0.00000000	      0.00000000	     12.64813176	    -15.61002424	     -0.65243211	     90.92560285	     47.41232687	      0.00000000	      0.00000000
     35.15371429	     -7.00299911	     -5.32129820	     -2.97658717	      1.12320339	      0.91708054	      0.45188353	     28.81499699	     -0.60251379	    -14.01966108	     16.29970288	     16.29970288	      2.18225842	      4.91195457	      4.63243983	      0.33622228	     -5.88495002	     -9.51326354	     15.33687210	     15.33687210	     20.50093486	     -5.93042575	     -2.75101877	    -11.00498500	      6.27640364	      1.21627694	    -12.34199436	    -13.32168384	     -9.69106571	     31.68940503	     46.82080392	      0.00000000	      0.00000000	     13.23080424	    -15.33172342	     -0.60881574	     91.37764445	     47.42451062	      0.00000000	      0.00000000
     35.16600000	     -6.87997409	     -5.15994977	     -2.81886172	      1.12487172	      0.91548202	      0.45433321	     28.57813148	     -0.58242362	    -13.40623961	     17.51732533	     17.51732533	      2.27210615	      3.48822859	      3.54776799	     -0.41230191	     -5.97450694	    -10.01546883	     15.40999917	     15.40999917	     21.00187214	     -4.85423778	     -3.00968697	    -10.78737521	      6.01983634	      1.67716218	    -12.32523284	    -13.02550632	     -9.46923993	     31.70964030	     46.79020708	      0.00000000	      0.00000000	     13.70877684	    -14.81399864	     -0.58582726	     92.86948477	     47.47239815	      0.00000000	      0.00000000
     35.17828571	     -6.70194393	     -5.23167823	     -2.51959980	      1.12644216	      0.91442690	      0.45662076	     28.06628237	     -0.43341098	    -13.37097904	     18.37440691	     18.37440691	      2.51635073	      2.88254295	      3.11405385	     -1.05403831	     -6.26976604	     -9.88240145	     15.70460789	     15.70460789	     21.29882925	     -4.69209063	     -3.12878823	    -10.60972442	      6.09873863	      1.68817453	    -11.86952138	    -12.74754137	     -9.36253258	     31.88113196	     46.77598284	      0.00000000	      0.00000000	     14.15328650	    -14.47979746	     -0.55366804	     93.32449389	     47.48557821	      0.00000000	      0.00000000
     35.19057143	     -6.51088244	     -5.15006242	     -2.28558310	      1.12782353	      0.91350107	      0.45894458	     27.81927514	     -0.41058034	    -12.85297864	     19.62077435	     19.62077435	      2.86985392	      1.71317925	      2.36720321	     -1.50345327	     -6.46548288	     -9.95924024	     16.37647655	     16.37647655	     21.62595725	     -4.43327588	     -3.29580150	    -10.57565158	      6.00269516	      1.98702571	    -11.48263574	    -12.60252263	     -9.20241476	     32.02312413	     46.75684325	      0.00000000	      0.00000000	     14.51523500	    -14.07587139	     -0.65693614	     94.16537870	     47.51732744	      0.00000000	      0.00000000
     35.20285714	     -6.46945961	     -5.19028020	     -2.04475432	      1.12901146	      0.91267575	      0.46157103	     27.52039694	     -0.06345121	    -11.83602835	     20.25334454	     20.25334454	      2.04741791	     -0.58030838	     -1.33296194	     -1.43457867	     -6.99102325	    -10.41900896	     17.76444928	     17.76444928	     22.46996406	     -3.39608092	     -2.69974083	    -10.42162440	      5.95777810	      1.56046652	    -10.61406089	    -12.76361303	     -6.99747195	     32.39463189	     46.52051945	      0.00000000	      0.00000000	     13.90389620	    -13.78612392	     -1.86479152	     96.15655586	     47.74711227	      0.00000000	      0.00000000
     35.21514286	     -6.35619450	     -5.20227992	     -1.76704135	      1.12997692	      0.91243469	      0.46391162	     27.32061100	      0.04736847	    -11.39343485	     21.28059713	     21.28059713	      2.65627858	     -1.56954541	     -1.57430849	     -1.34487228	     -7.34980708	    -10.14315635	     19.15276150	     19.15276150	     22.44432631	     -3.78165637	     -3.04966623	    -10.40428913	      5.96492648	      1.81176081	     -9.94012832	    -12.63409727	     -6.80460601	     32.69125198	     46.49299461	      0.00000000	      0.00000000	     14.07202684	    -13.36603749	     -1.90751925	     96.69147824	     47.77367512	      0.00000000	      0.00000000
     35.22742857	     -6.14945187	     -5.26433181	     -1.47054729	      1.13080549	      0.91271811	      0.46626126	     26.94553774	      0.20628242	    -11.07137480	     22.11455255	     22.11455255	      3.30524501	     -2.42079878	     -1.77131482	     -1.11301190	     -7.79683301	     -9.78754249	     20.94057650	     20.94057650	     22.22657013	     -4.39673054	     -3.46707577	    -10.54972090	      6.01469130	      2.00242804	     -9.11109888	    -12.61261574	     -6.66344006	     33.07026333	     46.46936695	      0.00000000	      0.00000000	     14.17873342	    -13.04064103	     -2.03616838	     97.14999366	     47.80016907	      0.00000000	      0.00000000
     35.23971429	     -6.08186493	     -5.31568136	     -1.19001680	      1.13132642	      0.91310997	      0.46864439	     26.66460856	      0.39893838	    -10.64422438	     22.75530771	     22.75530771	      3.94015099	     -3.40523693	     -1.78015090	     -0.37577946	     -8.28127091	     -9.31940713	     23.29416844	     23.29416844	     21.66812579	     -5.36159658	     -4.23084152	    -10.59137884	      6.05160999	      2.06756936	     -8.13288866	    -12.61012502	     -6.43035395	     33.66540940	     46.42894839	      0.00000000	      0.00000000	     13.89147390	    -12.66602970	     -2.34692317	     97.76587162	     47.84453435	      0.00000000	      0.00000000
